<svg xmlns="http://www.w3.org/2000/svg" viewBox="0 0 532.92 636.25"><defs><style>.cls-1,.cls-3{fill:#b3b3b3;}.cls-1,.cls-2,.cls-3,.cls-4,.cls-5{stroke:#999;}.cls-1,.cls-11,.cls-2,.cls-3,.cls-4,.cls-5{stroke-miterlimit:10;}.cls-1,.cls-11,.cls-4,.cls-5{stroke-width:2px;}.cls-13,.cls-2,.cls-5{fill:#999;}.cls-2,.cls-3{stroke-width:0.5px;}.cls-11,.cls-12,.cls-4{fill:none;}.cls-6{fill:#eff2d9;}.cls-7{fill:#e3e5c6;}.cls-8{fill:#e0c2a2;}.cls-9{fill:#373a38;}.cls-10{fill:#f7f8ec;}.cls-11{stroke:#373a38;}</style></defs><title>backpacaLogo</title><g id="Layer_2" data-name="Layer 2"><g id="Layer_1-2" data-name="Layer 1"><path class="cls-1" d="M371.81,308.34c.31-3-2.36-5.76-4-8a127.33,127.33,0,0,1-9.19-15.09q-2.7-4.92-5.33-9.87c0-.12.08-.24.1-.36,1.45-6.79-2.31-13.82-6-19.23-5.95-8.69-13.88-16-22.08-22.56a213.36,213.36,0,0,0-33.86-21.86,220.62,220.62,0,0,0-41.71-17c-11.12-3.19-22.93-5.64-34.56-5-1.1.06-2.19.16-3.29.29-6.25-9.14-14.42-17.22-24.38-22.24a43.3,43.3,0,0,0-27.84-4.22,44.87,44.87,0,0,0-23,13,69.81,69.81,0,0,0-15.17,25,98.32,98.32,0,0,0-5.74,33c0,1.49,0,3,.06,4.46,1.31,12.1,1.77,25-1.91,36.79a40.15,40.15,0,0,1-2,5.18c-.94,2-2.16,3.9-3.2,5.87a47.51,47.51,0,0,0-3.51,8.71A74.93,74.93,0,0,0,103,304c-1,5.83-.39,13.49,6.15,15.76,2.39.83,5.18.52,7.7.72,5.58.44,11.13,1.23,16.68,1.94,8.52,1.09,17,2.16,25.59,3.09q16.51,1.8,33.09,2.91,19.79,1.31,39.61,1.45,22.4.15,44.76-1.33,24.45-1.65,48.69-5.44,12.67-2,25.24-4.63c3.69-.78,7.39-1.53,11-2.46a23.75,23.75,0,0,0,6.21-2.38C369.72,312.5,371.56,310.75,371.81,308.34Z"/><path class="cls-2" d="M353.48,233c.67,8.46-1,17.23-6.05,24.2A30.77,30.77,0,0,1,328,269.28c-9.14,1.71-18.69-.23-27-4.12a63.34,63.34,0,0,1-23-18.62A58.74,58.74,0,0,1,266,219.8c-1.33-8.59-.37-17.72,4.07-25.32a30.38,30.38,0,0,1,18.05-13.84c8.78-2.47,18.26-1.25,26.66,2a62,62,0,0,1,24,17.18,60.57,60.57,0,0,1,13.59,26.09A47.82,47.82,0,0,1,353.48,233Z"/><path class="cls-3" d="M345.74,232.05c.55,6.88-.89,14-5,19.64a25.35,25.35,0,0,1-16.08,9.73c-15.71,2.78-31.61-6.54-41.05-18.55-9-11.46-14.41-28.87-6.35-42.28a24.91,24.91,0,0,1,14.86-11.09c7.21-2,15-.95,21.87,1.7,15,5.75,27.37,19.53,30.93,35.25A39,39,0,0,1,345.74,232.05Z"/><path class="cls-2" d="M336.8,229.8a22.6,22.6,0,0,1-3.77,15,19.08,19.08,0,0,1-12.11,7.49c-11.9,2.19-23.91-5-31-14.14-6.8-8.77-10.82-22-4.85-32.24a18.82,18.82,0,0,1,11.21-8.61,26.36,26.36,0,0,1,16.58,1.27,39,39,0,0,1,23.26,26.81A29.32,29.32,0,0,1,336.8,229.8Z"/><path class="cls-3" d="M330,226.27a17,17,0,0,1-2.89,11.41,14.39,14.39,0,0,1-9.23,5.63c-9,1.59-18-3.88-23.35-10.79-5.09-6.64-8.09-16.61-3.55-24.32,4.32-7.34,13.53-8.35,20.91-5.49C321.38,206.41,329.13,216,330,226.27Z"/><path class="cls-2" d="M325.64,227.12c.47,6-2.89,11.74-9.08,12.88-6.83,1.25-13.72-2.9-17.76-8.15-3.85-5-6.12-12.54-2.71-18.37,3.24-5.55,10.17-6.36,15.76-4.23C319.11,212,325,219.28,325.64,227.12Z"/><line class="cls-4" x1="116.01" y1="235.79" x2="352.38" y2="278.48"/><path class="cls-4" d="M213.79,189.32a138.56,138.56,0,0,0,14.28,34.13c8.62,14.56,20.43,27.56,35.29,35.9a71.78,71.78,0,0,0,16.2,6.72"/><ellipse class="cls-5" cx="213.24" cy="190.21" rx="4.36" ry="5.94" transform="translate(-13.62 16.47) rotate(-4.29)"/><path class="cls-6" d="M385.12,75.47c3.18.06,7.8.75,9.77,3.62,1.8,2.62-1,4.8-3.28,5.68a18.7,18.7,0,0,1-12.14.19c-2.17-.7-5.9-2.64-4.68-5.53a6.12,6.12,0,0,1,3.51-2.85A17.61,17.61,0,0,1,385.12,75.47Z"/><path class="cls-6" d="M384.69,83.71a24.45,24.45,0,0,1,6.45-.21,8.08,8.08,0,0,1,4.2,1.38c2.43,2-1.07,4.3-2.74,5.11a24.68,24.68,0,0,1-12.33,2.25c-1.7-.12-6.58-.76-5.68-3.55.45-1.37,2-2.28,3.22-2.89A23.33,23.33,0,0,1,384.69,83.71Z"/><path class="cls-6" d="M383.67,91.83A21.47,21.47,0,0,1,390,89.46a7.08,7.08,0,0,1,4.32.22c2.67,1.33.41,4.6-.91,6a22.53,22.53,0,0,1-10.71,6.21c-1.9.47-6.63,1.12-6.48-2.1.07-1.5,1.18-2.89,2.15-3.94A21.3,21.3,0,0,1,383.67,91.83Z"/><path class="cls-6" d="M386.86,103c1-2.67,2.75-6.33,5.52-7.62s3.34,2.14,3.27,4.09A21.15,21.15,0,0,1,392,110.16c-.91,1.35-3.41,4.68-5.4,3.19-1.07-.8-1.17-2.54-1.15-3.75A19.29,19.29,0,0,1,386.86,103Z"/><path class="cls-6" d="M390.85,68.67c2,2.48,4.59,6.65,3.45,10-1,3-4.59,2-6.62.8a18.78,18.78,0,0,1-7.75-9.1c-.86-2.16-1.73-6.33,1.39-7.13a6.35,6.35,0,0,1,4.4,1A17.64,17.64,0,0,1,390.85,68.67Z"/><path class="cls-7" d="M420.12,170.93c.66-2.64,1.14-6.67-.85-8.91-1.81-2.05-4.24-.08-5.44,1.59a16,16,0,0,0-2.8,9.8c.1,2,.87,5.58,3.59,5.15C417.77,178.05,419.47,173.55,420.12,170.93Z"/><path class="cls-7" d="M413.6,168.63c1-2.19,2.42-5.88,1.23-8.26-1.06-2.11-3.44.08-4.36,1.14a19.13,19.13,0,0,0-4.12,8.73c-.25,1.33-.72,5.25,1.7,4.89a5.21,5.21,0,0,0,2.7-1.9A18.52,18.52,0,0,0,413.6,168.63Z"/><path class="cls-7" d="M425.67,169.32c-1.55-2.13-4.06-4.75-6.88-5s-3.11,2.65-2.66,4.72a15.44,15.44,0,0,0,5.49,8.47c1.47,1.17,4.47,2.94,6.08,1,.88-1,.76-2.66.5-3.9A14.57,14.57,0,0,0,425.67,169.32Z"/><path class="cls-6" d="M519,222.07c1.32,21.75,2,43.45,1.39,63.9-.52,18.08-2,35.21-5.24,50.48-2.77,12.83-6.8,24.4-13.48,34a52.45,52.45,0,0,1-22.13,18.62,77.62,77.62,0,0,1-29,6.44,88.55,88.55,0,0,1-30.12-3.9,53.7,53.7,0,0,1-24.1-15.45c-7.54-8.36-12.25-18.68-15.59-30.24-4-13.93-6.05-29.79-7.05-46.73a605.29,605.29,0,0,1,0-61c1-21.9,2.68-44.17,5.14-65.65A551.66,551.66,0,0,1,387.66,117c3.27-14.81,7.25-28.61,12.74-40.72,4.36-9.63,9.7-18.36,17.07-25.19a43.47,43.47,0,0,1,21-11.16,42.16,42.16,0,0,1,22.78,1.8c8.34,3.12,14.82,8.59,20,14.88,6.83,8.25,11.76,18.29,15.8,29.3,5,13.54,8.63,28.73,11.6,44.89,3.45,18.74,6,38.83,7.92,59.34C517.57,200.74,518.39,211.41,519,222.07Z"/><path class="cls-7" d="M489.17,161.86c-2.43-1.12-5.43-3-6.29-5.76s1.8-3.75,4-3.75a15.77,15.77,0,0,1,9.65,3.76c1.46,1.22,3.81,3.77,2.41,5.81-.81,1.18-2.47,1.42-3.79,1.41A14.57,14.57,0,0,1,489.17,161.86Z"/><path class="cls-7" d="M491.46,155.33c-2.34-.62-5.68-1.71-7-3.93s1.52-2.84,3.08-2.94a18.76,18.76,0,0,1,9.63,2.16c1.17.6,4.38,2.45,3.11,4.21-.65.91-2.13,1.08-3.15,1.15A17.52,17.52,0,0,1,491.46,155.33Z"/><path class="cls-7" d="M484.45,165.18c-.7-2.58-1.26-6.57.68-8.79,1.74-2,4.14-.09,5.33,1.48a15.71,15.71,0,0,1,2.93,9.65c-.06,1.95-.81,5.46-3.48,5C486.86,172,485.15,167.74,484.45,165.18Z"/><path class="cls-7" d="M420.48,169.44c.62-2.65,1-6.69-1-8.9-1.85-2-4.25,0-5.42,1.68a16,16,0,0,0-2.63,9.85c.13,2,1,5.57,3.67,5.09C418.26,176.6,419.87,172.07,420.48,169.44Z"/><path class="cls-7" d="M413.92,167.24c.94-2.2,2.33-5.91,1.1-8.27-1.09-2.09-3.44.14-4.34,1.21a19.09,19.09,0,0,0-4,8.8c-.23,1.33-.63,5.26,1.78,4.86a5.1,5.1,0,0,0,2.67-2A17.79,17.79,0,0,0,413.92,167.24Z"/><path class="cls-7" d="M426,167.74c-1.58-2.11-4.13-4.69-7-4.85s-3.06,2.7-2.58,4.76a15.47,15.47,0,0,0,5.63,8.38c1.49,1.15,4.52,2.87,6.1.92.87-1.06.72-2.67.43-3.91A14.47,14.47,0,0,0,426,167.74Z"/><path class="cls-7" d="M472.25,169.44c-.61-2.65-1-6.69,1-8.9,1.84-2,4.24,0,5.41,1.68a16,16,0,0,1,2.63,9.85c-.12,2-1,5.57-3.67,5.09C474.48,176.6,472.86,172.07,472.25,169.44Z"/><path class="cls-7" d="M478.81,167.24c-.93-2.2-2.32-5.91-1.09-8.27,1.09-2.09,3.44.14,4.34,1.21a19.17,19.17,0,0,1,4,8.8c.23,1.33.63,5.26-1.78,4.86a5.1,5.1,0,0,1-2.67-2A18.07,18.07,0,0,1,478.81,167.24Z"/><path class="cls-7" d="M466.73,167.74c1.59-2.11,4.14-4.69,7-4.85s3.07,2.7,2.58,4.76a15.47,15.47,0,0,1-5.63,8.38c-1.49,1.15-4.52,2.87-6.1.92-.86-1.06-.72-2.67-.43-3.91A14.47,14.47,0,0,1,466.73,167.74Z"/><path class="cls-7" d="M431.21,169.72c1-2.52,2.68-5.73,5.38-6.73s3.82,1.72,3.94,3.9a15.86,15.86,0,0,1-3.13,9.88c-1.14,1.54-3.59,4-5.69,2.61a4.66,4.66,0,0,1-1.53-3.57A14.6,14.6,0,0,1,431.21,169.72Z"/><path class="cls-7" d="M437.89,171.53c.45-2.39,1.3-5.85,3.44-7.35s2.95,1.51,3.14,3a18.83,18.83,0,0,1-1.45,9.57c-.52,1.22-2.19,4.69-4,3.42-.91-.62-1.18-2-1.32-3A17.57,17.57,0,0,1,437.89,171.53Z"/><path class="cls-7" d="M427.56,165.25c2.51-.88,6.52-1.76,8.86.08,2,1.6.33,4.09-1.14,5.38a15.68,15.68,0,0,1-9.36,3.63c-1.95.08-5.55-.39-5.28-3.11C420.94,168.15,425.06,166.13,427.56,165.25Z"/><path class="cls-7" d="M444.77,169.72c1-2.52,2.68-5.73,5.38-6.73s3.82,1.72,4,3.9a15.87,15.87,0,0,1-3.14,9.88c-1.13,1.54-3.59,4-5.68,2.61a4.63,4.63,0,0,1-1.54-3.57A14.6,14.6,0,0,1,444.77,169.72Z"/><path class="cls-7" d="M451.45,171.53c.45-2.39,1.3-5.85,3.44-7.35s2.95,1.51,3.15,3a18.94,18.94,0,0,1-1.46,9.57c-.51,1.22-2.19,4.69-4.05,3.42-.91-.62-1.17-2-1.31-3A17.57,17.57,0,0,1,451.45,171.53Z"/><path class="cls-7" d="M441.12,165.25c2.52-.88,6.52-1.76,8.86.08,2,1.6.33,4.09-1.14,5.38a15.68,15.68,0,0,1-9.36,3.63c-2,.08-5.55-.39-5.28-3.11C434.5,168.15,438.62,166.13,441.12,165.25Z"/><path class="cls-7" d="M459.62,170.36c-2.18-1.6-4.88-4.19-5-7.1s2.85-3.11,4.95-2.62a15.94,15.94,0,0,1,8.54,5.66c1.19,1.52,3,4.63.92,6.22-1.08.85-2.67.72-3.92.45A14.86,14.86,0,0,1,459.62,170.36Z"/><path class="cls-7" d="M463.16,164.41c-2.19-1.08-5.13-2.76-6.1-5.17s2-2.56,3.59-2.35a18.9,18.9,0,0,1,8.87,3.93c1,.83,3.9,3.27,2.38,4.8-.78.78-2.25.68-3.24.56A17.28,17.28,0,0,1,463.16,164.41Z"/><path class="cls-7" d="M454.33,172.67c-.18-2.66.07-6.51,2.29-8.38,2.06-1.73,4.1.49,5,2.31a15.63,15.63,0,0,1,1,10c-.43,1.87-1.77,5.17-4.29,4.36C455.36,180,454.5,175.3,454.33,172.67Z"/><path class="cls-7" d="M403.27,158.73c2.44-1.12,5.43-3,6.3-5.76s-1.8-3.75-4-3.75a15.74,15.74,0,0,0-9.64,3.76c-1.46,1.22-3.81,3.77-2.41,5.81.8,1.18,2.47,1.42,3.78,1.41A14.53,14.53,0,0,0,403.27,158.73Z"/><path class="cls-7" d="M401,152.2c2.35-.62,5.69-1.71,7-3.93s-1.52-2.84-3.08-2.94a18.78,18.78,0,0,0-9.63,2.16c-1.17.6-4.37,2.45-3.11,4.21.66.91,2.14,1.08,3.16,1.15A17.43,17.43,0,0,0,401,152.2Z"/><path class="cls-7" d="M408,162.05c.7-2.58,1.26-6.57-.69-8.79-1.73-2-4.13-.09-5.32,1.49a15.67,15.67,0,0,0-2.94,9.64c.07,2,.81,5.46,3.49,5C405.59,168.86,407.3,164.61,408,162.05Z"/><path class="cls-6" d="M506.41,75.69c-3.16-.43-7.89-.48-10.26,2.1-2.17,2.36.44,5,2.52,6.14a18.8,18.8,0,0,0,11.8,2c2.26-.36,6.29-1.69,5.53-4.75a6.15,6.15,0,0,0-3-3.36A17.55,17.55,0,0,0,506.41,75.69Z"/><path class="cls-6" d="M505.55,83.9a24.12,24.12,0,0,0-6.46-1.22,7.73,7.73,0,0,0-4.37.79c-2.56,1.66.65,4.46,2.13,5.47A24.93,24.93,0,0,0,508.7,93c1.71.13,6.68.19,6-2.77-.31-1.4-1.71-2.51-2.81-3.29A23.11,23.11,0,0,0,505.55,83.9Z"/><path class="cls-6" d="M505.3,92.08a21.21,21.21,0,0,0-5.61-3.23,7.43,7.43,0,0,0-4.42-.58c-3,.82-1.27,4.47-.15,6.12a22.31,22.31,0,0,0,9.55,7.77c1.78.76,6.25,2.18,6.77-.88.25-1.45-.59-3-1.34-4.16A21.09,21.09,0,0,0,505.3,92.08Z"/><path class="cls-6" d="M500.42,102.56c-.6-2.79-1.78-6.93-4.46-8.5-2.47-1.45-3.48,2-3.69,3.77a21.3,21.3,0,0,0,2,11.16c.7,1.48,2.86,5.35,5,3.74,1.06-.78,1.37-2.41,1.52-3.63A19.72,19.72,0,0,0,500.42,102.56Z"/><path class="cls-6" d="M501.8,68.08c-2.36,2.14-5.32,5.61-5,9.06.29,3.23,3.93,3,6.23,2.2a18.69,18.69,0,0,0,9.18-7.69c1.18-1.93,2.81-5.8.12-7.3-1.37-.76-3.15-.42-4.55.05A17.29,17.29,0,0,0,501.8,68.08Z"/><path class="cls-7" d="M184.54,574c-2.43-1.12-5.43-3-6.29-5.76s1.8-3.75,4-3.75a15.71,15.71,0,0,1,9.64,3.76c1.46,1.22,3.81,3.77,2.42,5.81-.81,1.18-2.48,1.42-3.79,1.41A14.53,14.53,0,0,1,184.54,574Z"/><path class="cls-7" d="M186.83,567.42c-2.35-.62-5.69-1.71-7.05-3.93s1.52-2.84,3.08-2.94a18.78,18.78,0,0,1,9.63,2.16c1.17.6,4.37,2.45,3.11,4.21-.66.91-2.13,1.08-3.16,1.15A17.46,17.46,0,0,1,186.83,567.42Z"/><path class="cls-7" d="M188.93,561.94c-2.62.24-6.59.3-8.65-1.7-1.9-1.84.72-3.71,2.32-4.44a18.67,18.67,0,0,1,10.31-1.27c1.59.25,5.38,1.19,4.54,3.58a5,5,0,0,1-2.76,2.38A17.38,17.38,0,0,1,188.93,561.94Z"/><path class="cls-7" d="M194.39,552.35c-1.68,1.69-4.42,4.13-7,4-2.34-.14-1.53-2.94-.87-4.29a17.76,17.76,0,0,1,6.5-7c1.17-.72,4.34-2.42,5.19-.37.43,1.06-.14,2.41-.6,3.35A16.65,16.65,0,0,1,194.39,552.35Z"/><path class="cls-7" d="M179.82,577.27c-.7-2.58-1.27-6.57.68-8.79,1.73-2,4.13-.09,5.32,1.48a15.71,15.71,0,0,1,2.94,9.65c-.07,1.95-.81,5.46-3.49,5C182.22,584.08,180.51,579.83,179.82,577.27Z"/><path class="cls-7" d="M198.61,532.57c-2.2-1.46-4.93-3.84-5.25-6.65s2.5-3.22,4.59-2.87a15.55,15.55,0,0,1,8.7,5.12c1.23,1.43,3.13,4.34,1.28,6-1,.93-2.62.88-3.88.66A14.32,14.32,0,0,1,198.61,532.57Z"/><path class="cls-7" d="M202.61,527c-2.42-1.06-5.65-2.72-6.85-5.25s2-2.92,3.72-2.77a20.48,20.48,0,0,1,9.85,3.82c1.16.83,4.27,3.23,2.88,5-.77,1-2.44.93-3.53.85A18.85,18.85,0,0,1,202.61,527Z"/><path class="cls-7" d="M207,521.67c-2.62-.16-6.55-.7-8.28-3-1.6-2.11,1.28-3.56,3-4A18.64,18.64,0,0,1,212,515c1.53.49,5.13,2,3.94,4.23-.58,1.08-2,1.61-3.09,1.94A17.34,17.34,0,0,1,207,521.67Z"/><path class="cls-7" d="M209.71,512.4c-1.9,1.4-5.15,3.53-7.68,2.83-2.2-.61-.84-3.26,0-4.44a17.88,17.88,0,0,1,7.52-5.88c1.28-.53,4.74-1.68,5.11.6a4.82,4.82,0,0,1-1.19,3.19A17.14,17.14,0,0,1,209.71,512.4Z"/><path class="cls-7" d="M191.51,534.8c-.3-2.64-.24-6.5,1.9-8.47,2-1.83,4.11.29,5.09,2.07a15.6,15.6,0,0,1,1.51,10c-.34,1.89-1.53,5.24-4.08,4.55C192.89,542.11,191.81,537.42,191.51,534.8Z"/><path class="cls-7" d="M473.84,533c-3.13-.58-7.47-2-9-5.08-1.44-2.91,1.75-4.65,4.15-5.15a18.66,18.66,0,0,1,11.86,1.72c2,1,5.43,3.47,3.93,6.15-.77,1.37-2.46,2-3.9,2.35A17.47,17.47,0,0,1,473.84,533Z"/><path class="cls-7" d="M475.61,524.94a24.74,24.74,0,0,1-6.3-.81,8.42,8.42,0,0,1-4-2c-2.09-2.31,1.57-4.05,3.37-4.6a24.67,24.67,0,0,1,12.71-.23c1.65.4,6.33,1.83,5,4.42-.67,1.27-2.37,1.91-3.65,2.32A23.12,23.12,0,0,1,475.61,524.94Z"/><path class="cls-7" d="M477.94,517.09a21.11,21.11,0,0,1-6.47,1.31,7.26,7.26,0,0,1-4.3-.87c-2.49-1.74.27-4.63,1.83-5.83a22.43,22.43,0,0,1,11.46-4.37c2-.17,6.85-.08,6.17,3.12A6.77,6.77,0,0,1,484,513.9,20.9,20.9,0,0,1,477.94,517.09Z"/><path class="cls-7" d="M476.6,505.61c-1.45,2.47-3.69,5.7-6.6,6.59s-3-2.46-2.67-4.42a21,21,0,0,1,5.4-10.13c1.12-1.19,4-4,5.79-2.31,1,1,.79,2.74.58,4A19.39,19.39,0,0,1,476.6,505.61Z"/><path class="cls-7" d="M467.07,538.78c-1.57-2.78-3.51-7.46-1.71-10.56,1.54-2.65,4.83-1.06,6.61.4a18.8,18.8,0,0,1,6.17,10.31c.5,2.31.6,6.64-2.73,6.75C471.76,545.79,468.64,541.55,467.07,538.78Z"/><path class="cls-7" d="M466.37,543.93c-3.07-.91-7.91-1.7-10.58.64-2.37,2.07-.07,5,1.79,6.42A18.81,18.81,0,0,0,469,554.68c2.32,0,6.51-.83,6.05-4a6.31,6.31,0,0,0-2.56-3.7A17.76,17.76,0,0,0,466.37,543.93Z"/><path class="cls-7" d="M464.29,551.92a23.67,23.67,0,0,0-6.33-2.2,7.53,7.53,0,0,0-4.36.17c-2.71,1.29,0,4.5,1.34,5.71A24.91,24.91,0,0,0,466,561.39c1.7.4,6.83,1.21,6.41-2-.19-1.42-1.38-2.67-2.37-3.61A23.11,23.11,0,0,0,464.29,551.92Z"/><path class="cls-7" d="M462.82,560c-2.18-2.28-5.65-5.41-9.07-5.28-3.2.11-2.32,3.91-1.45,5.83a22.3,22.3,0,0,0,8.21,9.22c1.6,1,5.67,3.17,6.9.51.63-1.34,0-3.08-.51-4.35A20.64,20.64,0,0,0,462.82,560Z"/><path class="cls-7" d="M456.43,569.6c-.18-2.84-.72-7.2-3.18-9.11-2.28-1.77-3.76,1.59-4.21,3.35a21.33,21.33,0,0,0,.39,11.29c.48,1.56,2,5.6,4.38,4.36,1.17-.61,1.72-2.18,2.05-3.36A20,20,0,0,0,456.43,569.6Z"/><path class="cls-7" d="M463,535.71c-2.63,1.75-5.88,4.6-6.28,8s3.06,3.86,5.56,3.41a18.56,18.56,0,0,0,10.33-6.1c1.48-1.71,3.8-5.29,1.47-7.29-1.19-1-3-1-4.5-.74A17.3,17.3,0,0,0,463,535.71Z"/><path class="cls-7" d="M484.88,481.86c-3.16-.44-7.89-.51-10.27,2.06-2.18,2.35.42,5,2.5,6.16a18.77,18.77,0,0,0,11.79,2.05c2.26-.35,6.3-1.66,5.55-4.72a6.12,6.12,0,0,0-3-3.37A17.49,17.49,0,0,0,484.88,481.86Z"/><path class="cls-7" d="M484,490.07a23.69,23.69,0,0,0-6.46-1.24,7.6,7.6,0,0,0-4.36.77c-2.57,1.64.63,4.46,2.11,5.48a24.78,24.78,0,0,0,11.82,4.11c1.72.14,6.69.22,6-2.74-.3-1.4-1.69-2.51-2.79-3.3A22.7,22.7,0,0,0,484,490.07Z"/><path class="cls-7" d="M483.71,498.24a21.79,21.79,0,0,0-5.6-3.25,7.49,7.49,0,0,0-4.42-.59c-3,.81-1.28,4.46-.17,6.12a22.29,22.29,0,0,0,9.52,7.8c1.78.77,6.25,2.21,6.78-.85.25-1.45-.58-3-1.33-4.17A21.28,21.28,0,0,0,483.71,498.24Z"/><path class="cls-7" d="M478.79,508.71c-.59-2.8-1.75-6.94-4.43-8.52-2.46-1.45-3.49,1.95-3.7,3.76a21.36,21.36,0,0,0,2,11.16c.7,1.49,2.84,5.36,5,3.77,1.07-.78,1.38-2.41,1.54-3.63A19.45,19.45,0,0,0,478.79,508.71Z"/><path class="cls-7" d="M480.3,474.23c-2.37,2.13-5.34,5.59-5,9,.29,3.24,3.92,3.06,6.23,2.23a18.65,18.65,0,0,0,9.21-7.66c1.19-1.93,2.82-5.79.14-7.3-1.36-.76-3.14-.43-4.54,0A17.39,17.39,0,0,0,480.3,474.23Z"/><path class="cls-7" d="M494.24,467.91c-5,20.29-11.43,40.83-15.41,60.39-1.66,7.62-3.09,15.14-5.17,22.19-1.64,5.51-3.72,10.9-7.45,15.13a17.75,17.75,0,0,1-11.57,6.17,17.14,17.14,0,0,1-12.44-3.89c-4.13-3.4-6.57-8.18-8.39-13.12-2.37-6.49-3.8-13.56-5.35-20.74-3.73-18.66-9.3-38.47-14.61-58-5.53-20.7-9.44-41.67-4.12-61.85a81,81,0,0,1,10.54-24,84.57,84.57,0,0,1,14.2-17c4.16-3.76,8.79-7.11,13.74-8.53a18.34,18.34,0,0,1,13.32,1.42c5.11,2.47,9.83,6.59,14,10.93a87.89,87.89,0,0,1,13.8,19.13c9.77,17.75,11.21,36.9,8.13,55.77C496.62,457.23,495.51,462.57,494.24,467.91Z"/><path class="cls-7" d="M460.3,625h-6.54a8.07,8.07,0,0,1-2.67-.19c-1.69-.63-2.57-2.86-2.65-5.6,0-1.3.18-2.73.22-4.05a47.83,47.83,0,0,0-.38-7.65c-.95-7.73-3.47-15.46-5.82-23.19-2.23-7.34-4.31-14.67-4.79-22a46.2,46.2,0,0,1,0-6c.18-2.88,1.81-5.58,5.67-7.19a16.52,16.52,0,0,1,6.62-1.09h7.14c4.64,0,10.17-.6,12.43,2.23,1.49,1.84,1,4.09.37,6.47a50,50,0,0,0-1.24,6.53c-.9,7.49-.19,15,.57,22.46s1.61,15.22.85,22.84a48.41,48.41,0,0,1-1.22,7.17,13.59,13.59,0,0,1-2.23,5.23C464.8,623.42,462.19,625,460.3,625Z"/><path class="cls-7" d="M494.55,636.25c3-10.65-3.94-20.86-13.87-24.51s-21.87-.92-28.4,7.5a19.23,19.23,0,0,0-3.44,17Z"/><path class="cls-8" d="M489.27,636.25a20.9,20.9,0,1,0-40.51,0Z"/><path class="cls-7" d="M487.16,636.25c2.3-9.69-2.32-20.41-11.61-24.49-8.78-3.85-19-.3-24.05,7.66a22,22,0,0,0-2.77,16.83Z"/><path class="cls-7" d="M218.82,470.37c-6.81,21.27-15.58,42.87-20.84,62.9-4.33,14.61-6.69,29.9-17.15,39.09a26.77,26.77,0,0,1-15.65,6.43,28,28,0,0,1-16.8-4c-11.76-7.4-14.74-21.78-18.69-35.46-4.89-19-12.47-39.89-19.75-60.47-7.57-21.75-12.75-43.91-5.52-64.73,4.86-15.51,17.53-31.6,33.38-42.55,6-4.2,12.33-7.55,18.67-9a31.37,31.37,0,0,1,18,1.47c14.43,5.42,28.94,18.75,37.72,31.47,12.87,18,15.19,38.21,10.95,58.12A164.42,164.42,0,0,1,218.82,470.37Z"/><path class="cls-7" d="M174.31,630h-6.62c-2.37,0-5.38.53-7-.94-1.88-1.76-2.32-5.45-2.22-9.45a39.77,39.77,0,0,0-.26-6c-.95-7.9-4.07-15.81-7.2-23.71s-6.32-15.89-7.28-23.84a38.7,38.7,0,0,1-.27-6c.09-4,3.54-7.72,9.13-9.49,4.61-1.46,9.59-.94,13.89-.94,4.13,0,8.29,0,12.4,0,7.12.07,9.72,4.49,8.07,9.93a42.43,42.43,0,0,0-1.12,4.44c-1.45,7.5-.77,15,.18,22.5,1,8.25,2.42,16.5,1.65,24.75a43.27,43.27,0,0,1-1.32,7.39,15.6,15.6,0,0,1-4.6,7.64C179.25,628.61,176.36,630,174.31,630Z"/><path class="cls-7" d="M209.65,636.25a17.35,17.35,0,0,0-2.74-15.59,25.81,25.81,0,0,0-13-9c-10.73-3.44-24.21-1.22-31.89,7.5a17.66,17.66,0,0,0-3.9,17Z"/><path class="cls-8" d="M203.69,636.25c3-10.64-3.93-20.86-13.86-24.51s-21.87-.92-28.4,7.5a19.22,19.22,0,0,0-3.43,17Z"/><path class="cls-7" d="M201.31,636.25c2.77-10.37-3.42-20.78-13.22-24.53-9.47-3.63-20.89-.69-26.93,7.59a20,20,0,0,0-3.2,16.94Z"/><path class="cls-6" d="M492.73,30.19c-2.47,7.08-4.32,14.72-4.17,22.1.09,5,1,10.69,5.06,13.88,2.9,2.3,7.31,2.14,11.07-.23,4.82-3,7.39-7.58,9.05-11.4a45.39,45.39,0,0,0,3.49-17.39,105.17,105.17,0,0,0-1.45-18.89A123.22,123.22,0,0,0,513.1,4.39c-.82-2.87-1.78-5-3.43-4.25-1.92.83-4.16,4.28-6.15,7.45a116.4,116.4,0,0,0-8.68,17.05C494.09,26.46,493.38,28.31,492.73,30.19Z"/><path class="cls-7" d="M496.21,39.59c-4.61,9.86-5.3,19,1.19,21.95S512,56.44,512,43.35s-4.44-23.13-6.19-23S501,29.64,496.21,39.59Z"/><path class="cls-6" d="M401.5,31.81c2.22,6.05,4.71,12,6.09,18,.9,4,1.73,8.64-.83,12.65-1.84,2.87-5.84,4.66-10.25,4.15-5.64-.64-9.81-4-12.55-7.43C379.73,54,377.71,47.58,377.13,41A55.66,55.66,0,0,1,379.89,19a56.72,56.72,0,0,1,6.9-14.66c1.92-2.72,3.75-4.26,4.92-2.86,1.35,1.62,2.05,5.59,3,9,1.38,5.28,3.11,11,5.06,16.5C400.32,28.6,400.91,30.21,401.5,31.81Z"/><path class="cls-7" d="M398.38,39.59c4.61,9.86,5.3,19-1.19,21.95s-14.6-5.1-14.58-18.19,4.44-23.13,6.19-23S393.61,29.64,398.38,39.59Z"/><path class="cls-9" d="M407.65,88a11,11,0,1,1-8.91-10.76A11.07,11.07,0,0,1,407.65,88Z"/><path class="cls-9" d="M506.76,88a11,11,0,1,1-8.91-10.76A11.07,11.07,0,0,1,506.76,88Z"/><path class="cls-6" d="M501.93,55.67c2.94,8.75,3,14.72,0,17.72-4.14,4.71-14.57,5.52-27.08,6-15.46.55-34.66.51-50.84.17-13.61-.38-25.43-.89-31-4.91-3.92-2.56-4.92-7.64-2.26-16.39,2.44-8.35,5.78-15.35,9.4-19.2,5.3-5.91,12.79-7.73,21.66-8.89,11.21-1.4,24.83-1.49,37.25-1,11,.52,21.1,1.42,28.37,5.38,5,2.57,9.2,7.18,12.54,15.84C500.71,52.11,501.35,53.89,501.93,55.67Z"/><path class="cls-7" d="M498.65,113.05c1.8,15.32,1.9,30.42-2.79,41.32-4.06,9.64-12.35,16-25.55,18.93-12.6,2.78-28.94,3-42.41.92-14-2.27-23.58-7.67-28.55-16.52-5.66-9.81-6.31-23.91-5.06-38.81,1.39-15.34,4.63-31.25,10-43.65,4.8-11,11.64-19.34,21.42-23.85,9.19-4.24,20.76-5.3,31.39-3.39,10.82,2,19.52,7.4,25.69,15.86,7,9.48,11.28,23,14.06,37.63C497.58,105.3,498.18,109.18,498.65,113.05Z"/><path class="cls-6" d="M498.65,108.88c1.79,15.32,1.9,30.42-2.79,41.32-4.06,9.63-12.35,16-25.55,18.92-12.6,2.79-28.94,3-42.41.92-14-2.26-23.58-7.67-28.55-16.51-5.66-9.81-6.31-23.91-5.06-38.81,1.39-15.34,4.63-31.26,10-43.65C409.11,60,416,51.72,425.73,47.22c9.19-4.24,20.76-5.31,31.39-3.39,10.82,2,19.52,7.39,25.69,15.86,7,9.48,11.28,23,14.06,37.62C497.58,101.13,498.18,105,498.65,108.88Z"/><path class="cls-10" d="M473.74,109.4c3.78,15.29,3.62,27.91-13.49,30a97.27,97.27,0,0,1-25.33.4c-8.19-1-13.68-3.47-16.16-7.85-5.31-9.62,1.11-29.56,7.18-42.12,3-5.73,6.53-10.08,10.9-12.54a19.4,19.4,0,0,1,14-1.93c10.08,2.09,16.53,13.49,21.25,28C472.66,105.38,473.24,107.39,473.74,109.4Z"/><path class="cls-9" d="M440.62,97.91c2.44,1.14,5.56,3,6.55,5.69s-1.84,3.44-3.91,3.35a17.72,17.72,0,0,1-9.85-4c-1.35-1.08-4-3.61-2.63-5.57.8-1.12,2.51-1.22,3.76-1.16A16.38,16.38,0,0,1,440.62,97.91Z"/><path class="cls-9" d="M452.82,97.91c-2.44,1.14-5.55,3-6.54,5.69s1.83,3.44,3.91,3.35a17.69,17.69,0,0,0,9.84-4c1.35-1.08,4-3.61,2.64-5.57-.81-1.12-2.52-1.22-3.76-1.16A16.37,16.37,0,0,0,452.82,97.91Z"/><path class="cls-11" d="M446.77,106.27c0,4.17.05,8.34,0,12.5-.09,8.45-8.93,14.45-16.78,11a12.14,12.14,0,0,1-7.21-11"/><path class="cls-11" d="M446.77,106.27c0,4.17,0,8.34,0,12.5.1,8.45,8.93,14.45,16.78,11a12.15,12.15,0,0,0,7.22-11"/><path class="cls-6" d="M462.52,13.83c-2.79-.49-5.85,3.63-6.89,9.23a22.59,22.59,0,0,0-1-6.93c-.43-1.27-1.11-3-2.45-3.6-3.35-1.43-4.5,5.92-4.7,7.73a18.72,18.72,0,0,0-3.74-6.12c-.94-1-2.43-2.17-3.87-1.65s-1.85,2.66-1.92,4.06a19.83,19.83,0,0,0,1.36,7.61c.07.19.15.38.22.56a23.16,23.16,0,0,0-3.21-2.22c-2.47-1.43-6.36-3.36-9.32-2.4-2.4.79-1.18,3.36-.1,4.74a20.63,20.63,0,0,0,8.54,6c1.72.68,6.15,2.28,7.46,0,0-.06.05-.13.08-.2,1.49,1.69,3,2.52,4.26,2.08a2.53,2.53,0,0,0,1.38-1.45c.62,1.55,2.17,4,4.07,2.54,1.75-1.35,2.31-4.19,2.64-6.23.1,2.11.54,4.88,2.33,6.27,1.43,1.11,3.14.49,4.35-.63,3.62-3.37,4.74-9.86,3.88-14.54C465.54,16.85,464.66,14.21,462.52,13.83Z"/><path class="cls-6" d="M506.49,330.31c7,11.48,10.68,25.69,10.7,40.43q0,11.76,0,23.52A83.91,83.91,0,0,1,508.13,433a70.79,70.79,0,0,1-27.42,28.57c-11.8,6.87-25.7,10.79-40.22,12.1-5,.44-10,.48-15,.43-3.7,0-7.39,0-11.09,0q-9.24.07-18.46.41-12.15.44-24.3,1.25-14.34.93-28.69,2.26c-10.42.95-20.84,2-31.25,3.12-10.89,1.16-21.78,2.38-32.67,3.59s-21.48,2.36-32.22,3.45c-10.12,1-20.24,2-30.35,2.79q-13.51,1.08-27,1.82-11,.57-21.89.84-7.75.18-15.51.18c-2.46,0-4.93,0-7.4-.06a74.39,74.39,0,0,1-31.5-7.55c-13.56-6.54-25.79-17.05-35.43-29.39a108.93,108.93,0,0,1-20.11-40.75A91.12,91.12,0,0,1,55,394.7c0-3.72,0-7.44,0-11.17,0-4.16,0-8.32,0-12.49a93.9,93.9,0,0,1,2.09-19.77A115.63,115.63,0,0,1,76.32,309"/><path class="cls-6" d="M279.48,281.54h93.65"/><path class="cls-6" d="M175,470.37c-16.62,32.61-17.4,57.06-24.67,73.37-6.08,16.3-18.64,24.45-31.18,24.45S94.09,560,88,543.74c-7.26-16.31-8-40.76-24.66-73.37S59.93,413.31,73.59,397c14.85-16.3,30.19-24.45,45.56-24.45s30.76,8.15,45.63,24.45C178.45,413.31,191.62,437.76,175,470.37Z"/><path class="cls-6" d="M130.49,630h-6.62c-2.37,0-5.37.53-7-.94-1.87-1.76-2.31-5.45-2.22-9.45a38.49,38.49,0,0,0-.26-6c-.94-7.9-4.07-15.81-7.2-23.71S100.92,574,100,566.08a37.5,37.5,0,0,1-.27-6c.09-4,3.54-7.72,9.12-9.49,4.61-1.46,9.59-.94,13.89-.94,4.13,0,8.29,0,12.4,0,7.12.07,9.73,4.49,8.07,9.93a42.43,42.43,0,0,0-1.12,4.44c-1.45,7.5-.77,15,.18,22.5,1.05,8.25,2.42,16.5,1.66,24.75a42.35,42.35,0,0,1-1.33,7.39,15.53,15.53,0,0,1-4.6,7.64C135.43,628.61,132.54,630,130.49,630Z"/><path class="cls-6" d="M165.83,636.25a17.34,17.34,0,0,0-2.73-15.59,25.89,25.89,0,0,0-13-9c-10.74-3.44-24.22-1.22-31.89,7.5a17.64,17.64,0,0,0-3.91,17Z"/><path class="cls-8" d="M159.88,636.25c3-10.64-3.94-20.86-13.87-24.51s-21.86-.92-28.4,7.5a19.25,19.25,0,0,0-3.43,17Z"/><path class="cls-6" d="M157.5,636.25c2.76-10.37-3.43-20.78-13.22-24.53-9.47-3.63-20.89-.69-26.93,7.59a20,20,0,0,0-3.21,16.94Z"/><path class="cls-6" d="M439.68,625.54h-6.34a7,7,0,0,1-2.65-.23c-1.58-.68-2.39-2.89-2.42-5.54,0-1.22.18-2.55.22-3.79a48.53,48.53,0,0,0-.37-7.32c-.93-7.45-3.36-14.89-5.62-22.34-2.14-7-4.13-14.05-4.59-21.08a44.44,44.44,0,0,1,0-5.77c.18-2.76,1.72-5.33,5.4-6.9a15.8,15.8,0,0,1,6.47-1.08h6.87c4.59,0,10-.58,12.07,2.35,1.28,1.76.77,3.85.2,6.06a46.25,46.25,0,0,0-1.19,6.28c-.86,7.18-.18,14.36.55,21.54s1.55,14.66.82,22a47.47,47.47,0,0,1-1.17,6.89,13.22,13.22,0,0,1-2.08,4.95C444.08,624,441.53,625.54,439.68,625.54Z"/><path class="cls-6" d="M474.73,636.25c3-10.65-3.94-20.86-13.87-24.51s-21.87-.92-28.41,7.5a19.25,19.25,0,0,0-3.43,17Z"/><path class="cls-8" d="M469.45,636.25a20.9,20.9,0,1,0-40.51,0Z"/><path class="cls-6" d="M467.34,636.25c2.3-9.69-2.32-20.41-11.62-24.49-8.77-3.85-19-.3-24,7.66a22,22,0,0,0-2.78,16.83Z"/><path class="cls-6" d="M408.68,479.24c1.2,10.95-60.05,26.2-125.51,36.18-66.27,10.15-121.73,2.19-120.09-36.18-1.64-38.37,53.81-46.34,119.75-36.48C348.62,453,409.88,468.29,408.68,479.24Z"/><path class="cls-6" d="M270,510.4c-2.85-.42-7.07-1.33-8.82-3.92-1.61-2.39,1.74-3.62,3.54-4a21.41,21.41,0,0,1,11.33,1.3c1.53.61,5.55,2.52,4.08,4.81-.72,1.11-2.33,1.53-3.54,1.76A20,20,0,0,1,270,510.4Z"/><path class="cls-6" d="M368.54,288.05a28.38,28.38,0,0,1,5,3.17,9.31,9.31,0,0,1,2.69,2.9c1.32,2.64-2.68,2.22-4.1,1.91a28.91,28.91,0,0,1-10.92-5.12c-.92-.68-4.94-3.68-3.13-5.13,1-.8,2.86-.37,4-.13A26.66,26.66,0,0,1,368.54,288.05Z"/><path class="cls-6" d="M212.32,504.66c-2.34-2.17-6.18-4.93-9.61-4.17-3.13.68-2.49,4.31-1.46,6.48a18.85,18.85,0,0,0,8.51,8.42c2.05,1,6.11,2.23,7.25-.72a6.09,6.09,0,0,0-.56-4.49A17.47,17.47,0,0,0,212.32,504.66Z"/><path class="cls-6" d="M267.49,513.62c2.38-1.6,5.59-4.11,6.2-7.12s-2.87-2.72-4.73-2.23a21.22,21.22,0,0,0-9.72,6c-1.11,1.2-3.76,4.4-1.77,5.95,1.07.84,2.79.51,4,.21A19.64,19.64,0,0,0,267.49,513.62Z"/><path class="cls-6" d="M300,502.1c-2.87-1.4-7.84-3.13-10.79-1-2.42,1.78-.51,4.93,1,6.57A18.78,18.78,0,0,0,301,513.15c2.36.34,6.64.09,6.45-3.24C307.2,506.29,302.88,503.49,300,502.1Z"/><path class="cls-6" d="M324.43,502.3c-1.16-2.93-3.25-6.61-6.42-7.74s-4.45,2-4.56,4.58a18.57,18.57,0,0,0,3.86,11.48c1.35,1.78,4.25,4.68,6.7,3,1.37-.92,1.72-2.84,1.78-4.36A17.17,17.17,0,0,0,324.43,502.3Z"/><path class="cls-6" d="M328.77,494.53c-3-1-7.91-2-10.64.35-2.37,2-.15,5,1.64,6.44a18.79,18.79,0,0,0,11.21,4c2.38,0,6.75-.67,6.19-4C336.57,497.75,331.8,495.52,328.77,494.53Z"/><path class="cls-6" d="M351.58,498.48c-2.84-.38-7.06-1.23-8.84-3.78-1.63-2.35,1.69-3.63,3.47-4a21.28,21.28,0,0,1,11.28,1.12c1.54.59,5.56,2.43,4.14,4.73-.7,1.12-2.3,1.56-3.5,1.8A19.73,19.73,0,0,1,351.58,498.48Z"/><path class="cls-6" d="M514,360.34c-1.66-2.73-3.7-7.27-2.06-10.45,1.42-2.76,4.8-1.27,6.64.14A18.86,18.86,0,0,1,525,360c.59,2.3.88,6.73-2.49,6.94C518.86,367.2,515.62,363.06,514,360.34Z"/><path class="cls-6" d="M481.18,466.6c-1.91-2.56-4.34-6.82-3.07-10.15,1.12-2.94,4.65-1.79,6.64-.55a18.84,18.84,0,0,1,7.41,9.39c.77,2.19,1.48,6.4-1.67,7.07a6.37,6.37,0,0,1-4.36-1.12A17.66,17.66,0,0,1,481.18,466.6Z"/><path class="cls-6" d="M472.29,466.25c.73-3.1,2.34-7.37,5.51-8.76,3-1.31,4.56,2,4.94,4.39a18.65,18.65,0,0,1-2.29,11.76c-1.12,2-3.72,5.25-6.33,3.63-1.33-.83-1.89-2.55-2.16-4A17.27,17.27,0,0,1,472.29,466.25Z"/><path class="cls-6" d="M518.71,390.7c-.84-2.74-2.32-6.6-5-8s-3.4,2-3.47,3.88a21.15,21.15,0,0,0,2.89,11c.81,1.42,3.19,5.06,5.27,3.48,1.06-.8,1.25-2.49,1.31-3.71A19.49,19.49,0,0,0,518.71,390.7Z"/><path class="cls-6" d="M487,451.31c-1.87-.73-3.4-.78-4.16,0-1.13,1.2-.18,3.36.43,4.58a23,23,0,0,0,5.38,6.59,18.87,18.87,0,0,0,6.74,4.13c1.33.41,3.37.63,3.83-1.09.68-2.57-1.92-5.75-3.42-7.52l-.8-.32C490.92,456,487.88,453.43,487,451.31Z"/><path class="cls-6" d="M499.53,440.81c-5.22,1.57-8.94,4.53-8.31,6.62a1.67,1.67,0,0,0,.08.2c-2.24-.07-3.91.48-4.42,1.68a2.52,2.52,0,0,0,.11,2c.89,2.12,3.93,4.65,8,6.4a19.44,19.44,0,0,0,7.68,1.78c1.44,0,3.65-.28,4.09-2,.4-1.53-.92-3.09-1.92-4.08a20.16,20.16,0,0,0-6.29-4l-.56-.23a22,22,0,0,0,9.14-3.2,2.79,2.79,0,0,0,1-.17c2.67-1,3.16-6.22,1.1-11.62l-.18-.43c4.69,1.13,8.81.33,9.63-2.05.62-1.8-.8-4-3.42-5.9,1.71-.08,6.81-.52,6.25-3.34a4.41,4.41,0,0,0-2.11-2.45,17.6,17.6,0,0,0-5-2.13,18.36,18.36,0,0,0,6.73-2.81c1.09-.79,2.52-2.12,2.1-3.63s-2.32-2.11-3.66-2.39a19.73,19.73,0,0,0-7.73.15l-.59.13a23.58,23.58,0,0,0,2.7-2.82c.36-.45.7-.91,1-1.36a27.69,27.69,0,0,0,5.36,2.26,8.88,8.88,0,0,0,4,.48c3.39-.61.14-4.55-1-5.75,4.83.4,8.57-.28,9-1.84.52-1.76-3.29-4-8.82-5.47,4.25-1.23,7.12-2.92,7-4.37a1.66,1.66,0,0,0-1-1.23c1-2.06-1.61-5.87-6-8.91a18.49,18.49,0,0,0,5.2,0,4.79,4.79,0,0,0,3.09-1.46c1.72-2.4-2.94-4.8-4.49-5.51,3.12-.74,5.28-2.29,5.38-4.18.13-2.52-3.38-4.8-8.16-5.52l.33-.33c3.14-3.37,4.72-7.22,4.18-9.63a4.07,4.07,0,0,0,2.74-2.84c.28-1.88-1.52-3.83-4.43-5.19,3.42-.78,5.72-2.22,5.68-3.81,0-1.89-3.4-3.42-8-3.82a18.62,18.62,0,0,0,6-3.88c.93-1,2.12-2.48,1.57-3.9s-2.7-1.8-4.1-1.84a20,20,0,0,0-7.58,1.54l-.56.23a22.07,22.07,0,0,0,4.26-8.62c.33-1.47.87-4.64-1.08-5.31-1.73-.6-3.7,1.3-4.75,2.41a22.32,22.32,0,0,0-4.75,7.9c-.59,1.7-1.93,5.92.27,7.12"/><path class="cls-6" d="M71.42,469.73c1.38-2.87,3.07-7.86.88-10.79-1.8-2.41-4.94-.47-6.56,1.09a18.9,18.9,0,0,0-5.37,10.73c-.32,2.36,0,6.64,3.3,6.43C67.28,477,70.05,472.61,71.42,469.73Z"/><path class="cls-6" d="M79.31,531.68c2.61.24,6.58.3,8.64-1.69,1.9-1.84-.72-3.72-2.32-4.44a18.58,18.58,0,0,0-10.31-1.27c-1.59.25-5.38,1.19-4.53,3.58a5,5,0,0,0,2.75,2.38A17.43,17.43,0,0,0,79.31,531.68Z"/><path class="cls-6" d="M78,522.09c1.67,1.69,4.42,4.14,7,4,2.35-.13,1.54-2.93.87-4.29a17.73,17.73,0,0,0-6.5-7c-1.17-.73-4.34-2.42-5.18-.38-.43,1.06.13,2.41.59,3.36A16.41,16.41,0,0,0,78,522.09Z"/><path class="cls-6" d="M68.69,500.52c.56-2.81,1.67-7,4.33-8.57,2.45-1.49,3.51,1.91,3.75,3.71a21.43,21.43,0,0,1-1.84,11.19c-.68,1.49-2.78,5.39-5,3.82-1.07-.76-1.41-2.39-1.58-3.61A20,20,0,0,1,68.69,500.52Z"/><path class="cls-6" d="M70.67,507.33a32.12,32.12,0,0,1,6.26-3.83,10.28,10.28,0,0,1,4.56-1.19c3.37.21.88,4.19-.16,5.54a32,32,0,0,1-11,8.75c-1.27.64-6.76,3.24-7.14.25-.18-1.48,1.06-3.11,1.9-4.2A29.66,29.66,0,0,1,70.67,507.33Z"/><path class="cls-6" d="M154.39,527.64a36.68,36.68,0,0,1-7.48-.33,10,10,0,0,1-4.6-1.52c-2.66-2.09,2.73-3.88,4.06-4.25a38.38,38.38,0,0,1,14.82-1c1.22.15,7.68,1.05,5.92,3.6-.89,1.3-2.94,1.86-4.35,2.26A36.44,36.44,0,0,1,154.39,527.64Z"/><path class="cls-6" d="M167.87,504.8c-2.58,1.9-6.27,1.14-8.84-.37-.8-.47-1.77-1.08-1.85-2.09-.1-1.3.86-2.63,1.63-3.59,2.23-2.78,5.86-5.51,9.47-6,1-.14,2.15-.08,2.64.92a6.41,6.41,0,0,1,.37,2.88C171.22,499.45,170.33,503,167.87,504.8Z"/><path class="cls-6" d="M386.85,478c1.82,2.21,4.69,5.28,7.77,5.52s2.31-3.28,1.64-5a21.33,21.33,0,0,0-6.88-9c-1.29-1-4.81-3.37-6.12-1.15-.68,1.14-.21,2.78.19,3.93A19.71,19.71,0,0,0,386.85,478Z"/><path class="cls-6" d="M401.37,509.31c1.13-3,2.29-7.82.1-10.64-1.91-2.46-5-.37-6.5,1.36a18.75,18.75,0,0,0-4.51,11c-.15,2.37.38,6.78,3.73,6.36C397.81,517,400.24,512.29,401.37,509.31Z"/><path class="cls-6" d="M404.29,540.48a21,21,0,0,0,4.8,3.35,7.32,7.32,0,0,0,3.92,1c2.78-.38,1.48-3.77.61-5.3a21.37,21.37,0,0,0-8.16-7.85c-1.45-.8-5.53-2.65-6.22.06-.33,1.27.37,2.73,1,3.81A19.92,19.92,0,0,0,404.29,540.48Z"/><path class="cls-6" d="M458.19,522.57c-3.13-.58-7.47-2-9-5.08-1.45-2.91,1.74-4.66,4.14-5.16a18.73,18.73,0,0,1,11.86,1.73c2,1,5.43,3.46,3.93,6.15-.76,1.36-2.46,2-3.9,2.34A17.29,17.29,0,0,1,458.19,522.57Z"/><path class="cls-6" d="M460,514.51a24.37,24.37,0,0,1-6.3-.82,8.29,8.29,0,0,1-4-2c-2.09-2.3,1.57-4,3.37-4.59a24.67,24.67,0,0,1,12.71-.24c1.65.4,6.33,1.83,5,4.43-.66,1.27-2.37,1.91-3.65,2.32A23.12,23.12,0,0,1,460,514.51Z"/><path class="cls-6" d="M462.29,506.66a21.05,21.05,0,0,1-6.47,1.31,7.27,7.27,0,0,1-4.3-.88c-2.49-1.73.27-4.62,1.83-5.83a22.42,22.42,0,0,1,11.46-4.36c2-.18,6.86-.08,6.17,3.12a6.81,6.81,0,0,1-2.66,3.45A21.15,21.15,0,0,1,462.29,506.66Z"/><path class="cls-6" d="M461,495.17c-1.45,2.47-3.69,5.7-6.6,6.59s-3-2.45-2.67-4.41a21.12,21.12,0,0,1,5.4-10.13c1.12-1.19,4-4,5.79-2.31,1,.95.79,2.74.58,3.94A19.21,19.21,0,0,1,461,495.17Z"/><path class="cls-6" d="M451.43,528.34c-1.58-2.77-3.52-7.45-1.71-10.56,1.54-2.65,4.82-1,6.6.4a18.83,18.83,0,0,1,6.17,10.31c.5,2.31.6,6.65-2.73,6.75C456.11,535.36,453,531.12,451.43,528.34Z"/><path class="cls-6" d="M450.72,533.49c-3.07-.9-7.91-1.7-10.58.65-2.37,2.07-.07,5,1.79,6.42a18.74,18.74,0,0,0,11.37,3.68c2.32,0,6.51-.82,6.05-4a6.31,6.31,0,0,0-2.56-3.7A17.78,17.78,0,0,0,450.72,533.49Z"/><path class="cls-6" d="M448.64,541.48a23.65,23.65,0,0,0-6.33-2.19,7.44,7.44,0,0,0-4.36.17c-2.71,1.29,0,4.49,1.34,5.71a24.91,24.91,0,0,0,11,5.79c1.7.4,6.83,1.2,6.41-2-.19-1.42-1.38-2.67-2.37-3.61A23.15,23.15,0,0,0,448.64,541.48Z"/><path class="cls-6" d="M447.17,549.53c-2.18-2.29-5.64-5.41-9.07-5.29-3.2.12-2.32,3.92-1.45,5.84a22.21,22.21,0,0,0,8.21,9.21c1.6,1,5.67,3.18,6.9.52.63-1.35,0-3.09-.51-4.35A20.45,20.45,0,0,0,447.17,549.53Z"/><path class="cls-6" d="M440.78,559.17c-.18-2.84-.72-7.2-3.18-9.11-2.28-1.77-3.76,1.59-4.21,3.34a21.36,21.36,0,0,0,.39,11.3c.48,1.56,2,5.6,4.39,4.36,1.16-.62,1.71-2.18,2-3.36A20,20,0,0,0,440.78,559.17Z"/><path class="cls-6" d="M447.3,525.28c-2.63,1.75-5.88,4.6-6.28,8s3.07,3.85,5.56,3.41a18.61,18.61,0,0,0,10.33-6.1c1.48-1.71,3.8-5.29,1.48-7.29-1.2-1-3-1-4.5-.74A17.28,17.28,0,0,0,447.3,525.28Z"/><path class="cls-6" d="M469.23,471.43c-3.16-.45-7.89-.51-10.27,2.06-2.18,2.35.42,5,2.5,6.15a18.72,18.72,0,0,0,11.79,2.06c2.26-.35,6.3-1.66,5.55-4.72a6.09,6.09,0,0,0-3-3.37A17.49,17.49,0,0,0,469.23,471.43Z"/><path class="cls-6" d="M468.35,479.63a24.22,24.22,0,0,0-6.47-1.24,7.79,7.79,0,0,0-4.36.77c-2.57,1.65.63,4.46,2.11,5.48a24.73,24.73,0,0,0,11.83,4.12c1.71.14,6.68.22,6-2.74-.31-1.41-1.7-2.52-2.8-3.3A23.08,23.08,0,0,0,468.35,479.63Z"/><path class="cls-6" d="M468.06,487.81a21.34,21.34,0,0,0-5.6-3.25A7.5,7.5,0,0,0,458,484c-3,.82-1.28,4.47-.17,6.13a22.4,22.4,0,0,0,9.53,7.8c1.77.77,6.24,2.2,6.77-.86.25-1.44-.58-3-1.33-4.16A21.08,21.08,0,0,0,468.06,487.81Z"/><path class="cls-6" d="M463.15,498.28c-.6-2.8-1.76-6.94-4.44-8.52-2.46-1.46-3.49,1.95-3.7,3.76a21.36,21.36,0,0,0,2,11.16c.7,1.49,2.84,5.36,5,3.76,1.06-.78,1.38-2.41,1.53-3.62A19.71,19.71,0,0,0,463.15,498.28Z"/><path class="cls-6" d="M464.65,463.8c-2.37,2.13-5.34,5.59-5,9,.29,3.24,3.92,3.06,6.23,2.23a18.65,18.65,0,0,0,9.21-7.66c1.19-1.93,2.83-5.79.14-7.3-1.36-.77-3.14-.43-4.54,0A17.42,17.42,0,0,0,464.65,463.8Z"/><path class="cls-6" d="M389.56,103.86c-3.16-.44-7.89-.48-10.26,2.1-2.17,2.36.44,5,2.53,6.14a18.7,18.7,0,0,0,11.79,2c2.26-.35,6.29-1.68,5.53-4.74a6.12,6.12,0,0,0-3-3.36A17.44,17.44,0,0,0,389.56,103.86Z"/><path class="cls-6" d="M497.05,112.33a25.74,25.74,0,0,0,7.25-1,9.28,9.28,0,0,0,4.29-2.29c2.4-2.67-1.6-4.8-3.74-5.5a26.35,26.35,0,0,0-14.2-.4c-2,.48-7.08,2.13-5.66,5.15.71,1.52,2.64,2.32,4.13,2.82A24.47,24.47,0,0,0,497.05,112.33Z"/><path class="cls-6" d="M507.59,231.83c-1.17,3-2.45,7.87-.23,10.69,1.9,2.41,4.93.38,6.49-1.31a18.8,18.8,0,0,0,4.68-11.07c.17-2.36-.33-6.66-3.64-6.3C511.26,224.23,508.76,228.86,507.59,231.83Z"/><path class="cls-6" d="M514.72,311.07a20.06,20.06,0,0,0,6.81,3.35c1.38.33,3.5.64,4.51-.65s.22-3-.43-4.12a18.19,18.19,0,0,0-4.92-5.38,18.43,18.43,0,0,0,5.19.21,4.72,4.72,0,0,0,3.16-1.31c1.84-2.31-2.7-4.93-4.22-5.72,2.31-.42,6.5-2,5.44-5.09-1-2.91-5.07-4.19-7.73-4.73l.34-.32c4.14-4,5.88-8.95,3.89-11s-7-.45-11.11,3.58"/><path class="cls-6" d="M515.46,268.26c3.39,4.27,7.52,6.63,9.23,5.28,1.54-1.22.45-4.08-.16-5.48A22.45,22.45,0,0,0,519,260.5l.6.14a20,20,0,0,0,7.59.25c1.37-.26,3.38-.83,3.82-2.37s-.91-2.79-2-3.58a18.23,18.23,0,0,0-6.8-3,17.65,17.65,0,0,0,4.93-2,4.48,4.48,0,0,0,2.25-2.5c.58-2.81-4.5-3.3-6.22-3.4,2.64-1.83,4.08-4.06,3.48-5.86s-3.39-2.82-6.86-2.57a20.7,20.7,0,0,0-4.32-4.4,18.07,18.07,0,0,0,5.19.21,4.69,4.69,0,0,0,3.16-1.31c1.84-2.3-2.7-4.93-4.22-5.71,2.31-.43,6.5-2,5.44-5.1-1-2.91-5.07-4.19-7.73-4.73l.35-.32c4.13-4,5.87-8.95,3.88-11s-7-.45-11.11,3.58"/><path class="cls-6" d="M511.28,195.23c3.4,4.27,7.53,6.64,9.24,5.28,1.53-1.22.44-4.07-.17-5.48a22.29,22.29,0,0,0-5.56-7.56l.59.14a20,20,0,0,0,7.6.25c1.37-.26,3.38-.83,3.82-2.37s-.92-2.79-2-3.58a18.2,18.2,0,0,0-6.81-3,17.53,17.53,0,0,0,4.93-2,4.48,4.48,0,0,0,2.26-2.49c.58-2.82-4.51-3.31-6.22-3.41,2.64-1.83,4.08-4.06,3.48-5.86-.8-2.39-4.91-3.23-9.61-2.15l.18-.43a20,20,0,0,0,1-3.34c1.5,1.24,3.56,2.77,5.62,2.75,1.44,0,2.07-1.11,2-2.44a11,11,0,0,0-2-5.07,23,23,0,0,0-5.06-5.63l.6.1c5.88.86,10.95-.45,11.31-2.91s-3.7-4.9-9.15-5.88c4.35-1.42,7.29-3.66,6.91-5.52-.33-1.56-2.89-2.44-6.39-2.43,1.86-1.46,4.89-4.8,2.42-7.08-2.25-2.06-6.38-1.33-9-.58.05-.14.11-.29.16-.44,1.81-5.48,1.08-10.65-1.64-11.55s-6.38,2.82-8.2,8.3"/><path class="cls-6" d="M368.34,276.25c-.94.4-1.12,2.26-.65,4.8a19.1,19.1,0,0,0-3.81-2.62c-.72-.35-1.83-.88-2.65-.54-1.52.63-.28,3.14.2,4.07a27.61,27.61,0,0,0,5.38,7c1.81,1.76,4,3.72,6.46,4.49,1,1.17,3.49,3.44,4.09.77.53-2.32-.39-5.11-1.14-7.28a29.6,29.6,0,0,0-4.07-8C371.48,278,369.77,275.64,368.34,276.25Z"/><path class="cls-6" d="M378.57,241.29c-4.14-4-9.12-5.63-11.11-3.58s-.26,7,3.88,11l.35.32c-4.73.95-8.13,3.4-7.88,5.91.2,1.89,2.43,3.33,5.59,3.91-1.52.79-6.06,3.41-4.22,5.72a4.62,4.62,0,0,0,3,1.29,17.92,17.92,0,0,0,5.32-.19c-4.39,3.39-6.79,7.51-5.4,9.43s6.55.85,11.37-2.63"/><path class="cls-6" d="M378.08,198c-3-1-7.57-1.9-10.4.12-3.15,2.24.19,5.87,2.32,7.34-1.71.1-6.8.59-6.22,3.4a4.4,4.4,0,0,0,2.14,2.43,17.43,17.43,0,0,0,5.05,2.08,18.47,18.47,0,0,0-6.71,2.88c-1.07.8-2.49,2.15-2.06,3.66s2.35,2.07,3.69,2.34a19.73,19.73,0,0,0,7.73-.22l.59-.14a22.19,22.19,0,0,0-5.56,7.56c-.61,1.4-1.7,4.25-.17,5.48,1.71,1.35,5.84-1,9.24-5.28"/><path class="cls-6" d="M385.58,193.23c1.17,3,2.45,7.87.23,10.69-1.89,2.41-4.93.38-6.48-1.31a18.75,18.75,0,0,1-4.69-11.07c-.17-2.36.34-6.67,3.65-6.3C381.91,185.63,384.41,190.26,385.58,193.23Z"/><path class="cls-6" d="M389.25,120.69c-2.41-5.25-6.47-8.54-9.07-7.34s-2.75,6.41-.34,11.66l.21.42c-4.76-.82-8.81.24-9.48,2.67-.5,1.83,1.06,4,3.8,5.67-1.71.18-6.76.95-6,3.73a4.41,4.41,0,0,0,2.27,2.31,17.73,17.73,0,0,0,5.15,1.8,18.62,18.62,0,0,0-6.44,3.16c-1.05.85-2.43,2.27-2,3.77s2.47,2,3.84,2.22a19.85,19.85,0,0,0,7.7-.65l.59-.17a22.64,22.64,0,0,0-4.92,7.27c-.63,1.52-1.54,4-.55,5.56.88,1.39,2.74.71,3.88.08a17.8,17.8,0,0,0,5.51-5.35"/><path class="cls-6" d="M383.78,168.26c-4.14-4-9.11-5.63-11.1-3.58s-.26,7,3.88,11l.35.32c-4.74.95-8.13,3.4-7.88,5.91.19,1.89,2.42,3.33,5.58,3.91-1.52.79-6.05,3.41-4.22,5.72a4.62,4.62,0,0,0,3,1.29,17.91,17.91,0,0,0,5.32-.19c-4.38,3.39-6.78,7.51-5.4,9.44s6.55.84,11.38-2.64"/><path class="cls-6" d="M108.47,553.42a3.93,3.93,0,0,0-3.67-.78c.88-1.46,1.13-2.74.57-3.57s-2.14-1.11-4.1-.69a2.52,2.52,0,0,0,.44-2c-.32-1.26-1.87-2.07-4.1-2.37,0-.06.08-.11.12-.18.84-1.73-1.56-4.68-5.5-7a2.3,2.3,0,0,0-.19-.75,3.28,3.28,0,0,0-2.69-1.62c1.09-.91,1.65-1.85,1.43-2.66-.49-1.87-4.85-2.33-9.75-1s-8.46,3.85-8,5.71c.34,1.29,2.53,1.91,5.45,1.74-2,1.77-3,3.76-2.35,5.2.88,1.91,4.37,2.23,8.18.9,0,.13-.08.25-.11.38a18,18,0,0,0-.5,2.58c-1.33.88-3.54,2.61-2.86,4.49s3.12,2.13,4.69,2.25a2,2,0,0,0,.55.25,2.59,2.59,0,0,0,1.83-.23,22.75,22.75,0,0,0,3.57-.49,17.83,17.83,0,0,0-3.58,3.93,4.63,4.63,0,0,0-1,3.14c.57,2.91,5.51,1.14,7.1.49-1.59,2.79-1.93,5.42-.61,6.79s3.24,1,4.74.51a18.8,18.8,0,0,0,10.64-10.27C109.34,556.69,109.69,554.67,108.47,553.42Z"/><path class="cls-6" d="M113.38,565.49c-.22-3.18-1.14-7.76-4.11-9.59-2.71-1.66-4.74,1.29-5.5,3.58a18.62,18.62,0,0,0,.42,12.13c.81,2.13,2.93,5.76,5.75,4.39a6.06,6.06,0,0,0,2.67-3.65A17.52,17.52,0,0,0,113.38,565.49Z"/><path class="cls-6" d="M503.89,64.94a23.59,23.59,0,0,0-3.59-1.55l.6-.11a20.24,20.24,0,0,0,7-2.73c1.15-.77,2.71-2,2.67-3.55s-1.8-2.35-3.11-2.69a18.12,18.12,0,0,0-7.55,0c3.6-2.84,5.58-6,4.57-7.57-.84-1.35-3.55-1.29-6.83-.07,1.69-2.73,2.12-5.35.85-6.76-1.43-1.59-4-1-5.77-.33a18.9,18.9,0,0,0-7.27,5.3c-1.55,1.8-3.13,4.15-3.24,6.61s2,3.66,4.38,3.3c-.93,1.43-1.23,2.7-.7,3.55s2.09,1.19,4.07.84a2.52,2.52,0,0,0-.5,1.94c.27,1.27,1.79,2.14,4,2.51a1.88,1.88,0,0,0-.12.18c-1,1.92,2,5.56,6.86,8.12s9.54,3.08,10.57,1.16S508.7,67.5,503.89,64.94Z"/><path class="cls-6" d="M478.44,41.63c.11,3.18.86,7.79,3.77,9.72,2.64,1.76,4.78-1.13,5.62-3.38a18.7,18.7,0,0,0,0-12.14c-.74-2.15-2.73-5.86-5.6-4.59a6.08,6.08,0,0,0-2.8,3.55A17.47,17.47,0,0,0,478.44,41.63Z"/><path class="cls-6" d="M72.06,327.79q-14-13-6.48,3.41c-2.82-.94-5-1-5.57.15a2.74,2.74,0,0,0,.44,2.54,2.81,2.81,0,0,0-1.18.36c-2.46,1.46-2.06,6.67.89,11.64.08.13.16.26.25.39-4.82-.31-8.74,1.17-9.15,3.65-.31,1.88,1.47,3.85,4.37,5.24-3.42.75-5.74,2.16-5.72,3.74,0,1.9,3.37,3.46,7.93,3.91-5.11,2.13-8.51,5.49-7.67,7.71s6.11,2.52,11.67.42l.56-.23a24.53,24.53,0,0,0-3.46,5.87c-5.1-.49-9.34,1-9.76,3.6-.31,1.88,1.47,3.85,4.37,5.23-3.43.75-5.74,2.16-5.72,3.75,0,1.9,3.37,3.46,7.93,3.91-5.12,2.13-8.51,5.48-7.68,7.7.46,1.21,2.08,1.84,4.3,1.88a18.58,18.58,0,0,0,3.24,5.09l.31.35q-15,3.93-3.06,9.6c-3.23,1.36-5.25,3.17-4.94,4.73.37,1.86,3.94,2.78,8.51,2.39-4.64,3-7.37,6.95-6.14,9s6.47,1.36,11.55-1.72l.52-.33a23.74,23.74,0,0,0-2.6,8q-19-.33-1.51,8.86c-4.51.86-7.7,2.71-7.55,4.61.12,1.58,2.55,2.78,6,3.21q-7.08,4.36-1.83,7.79c-.64,2.44,1.34,6.4,5,9.64l.36.3q-14.36,5.87-1.79,9.93-10.42,8.3,4.48,6.59c-4.05,3.47-6.21,7.51-5.06,9.47a1.63,1.63,0,0,0-.91,1.32c0,1.46,3.07,2.85,7.41,3.65q-18.71,10.42,5.13,6.25c-3.22,1.38-5.27,3.48-5.24,4.71,0,1.45,3.07,2.85,7.42,3.64q-17.05,8.63.94,7.26c-6.51,8.08,6.17,4.22,13.53-1.3"/><path class="cls-6" d="M489,33.56c-3.05-3.45-3.84-2.73-7.14.32,1-2,2.62-5.06,2.06-7.44-.28-1.2-2.05-1.94-3.19-2.09s-1.87.66-2.49,1.5c-1.5,2-2.7,4.26-4.05,6.38.85-5.44.21-9.72-1.64-10-1.57-.25-2.86,1.95-3.5,3.05a29,29,0,0,0-2.93,7.86,28.74,28.74,0,0,0-.87,8.66c.1,1.23.34,3.91,2,4.16a2,2,0,0,0,1.56-.58A2,2,0,0,0,469,46c-.88,1.44-1.16,2.6-.61,3.22,1.1,1.23,3.83,0,5-.46a35.68,35.68,0,0,0,8-4.84,32.59,32.59,0,0,0,6.26-6.1C488.32,36.89,490,34.72,489,33.56Z"/><path class="cls-6" d="M425.67,47c1.7-.27,1.9-3.16,2-4.44a30,30,0,0,0-1.16-9.46,24.22,24.22,0,0,0-3.32-7.83c-.71-1-2.24-2.82-3.56-1.65a4.89,4.89,0,0,0-1.15,3,21.38,21.38,0,0,0,0,5.18,23,23,0,0,0-4.88-4.65,3.4,3.4,0,0,0-2.44-1.37c-2.54-.09-4.78,3.54-5.39,8.4a1.46,1.46,0,0,0-.86.42,1.44,1.44,0,0,0-.24,1.27c-2.07-1.35-5.62-3.17-8.07-1.73-2.63,1.54-1,5.37.2,7.29-3.28-1.22-6-1.29-6.83.06-1,1.61,1,4.73,4.56,7.57-5.45-1-10.12,0-10.61,2.35s3.78,5.42,9.59,6.65l.6.11A22.37,22.37,0,0,0,386,62.86c-1.12,1-3.17,3.11-2.42,4.86.86,2,4.33,1.26,5.87.86a22.35,22.35,0,0,0,8.61-4.45c1.28-1.08,4.07-3.59,3-5.57a1,1,0,0,0-.12-.17c2.21-.38,3.74-1.25,4-2.51a2.53,2.53,0,0,0-.5-2c2,.35,3.48.11,4.07-.84s.23-2.12-.7-3.54a4,4,0,0,0,3.65-.9,3.36,3.36,0,0,0,.72-2.54,5.1,5.1,0,0,0,.84-.73c5.58,4.17,11.09,6.34,12.41,4.85.55-.62.28-1.78-.61-3.22a.86.86,0,0,0,.07-.1A1.52,1.52,0,0,0,425.67,47Z"/><path class="cls-6" d="M263.6,284.29c-2.8.72-6.73,2-8.3,4.72-1.47,2.52,1.86,3.5,3.75,3.65a21.34,21.34,0,0,0,11.16-2.42c1.46-.76,5.22-3,3.73-5.15-.76-1.1-2.45-1.37-3.67-1.48A19.5,19.5,0,0,0,263.6,284.29Z"/><path class="cls-6" d="M208,273.71a22.31,22.31,0,0,1,2.62,6.37,7.28,7.28,0,0,1-.1,4.66c-1.34,2.73-4.73.52-6.23-.8a23.23,23.23,0,0,1-6.82-11.08c-.54-1.95-1.31-6.72,2-6.72,1.56,0,3.06,1.13,4.18,2.1A22.25,22.25,0,0,1,208,273.71Z"/><path class="cls-6" d="M196.51,277.35c2.82,1,6.65,2.68,8.08,5.53s-2.12,3.52-4.14,3.51a22,22,0,0,1-11.26-3.48c-1.45-.91-5.07-3.48-3.48-5.6.85-1.13,2.68-1.26,4-1.26A20.24,20.24,0,0,1,196.51,277.35Z"/><path class="cls-6" d="M260.8,286.56c2.54,1.35,5.86,3.44,6.89,6.31s-2.32,3.15-4.3,2.86A21.11,21.11,0,0,1,253,290.79c-1.24-1.07-4.17-3.86-2.57-5.69.91-1,2.7-.91,3.92-.75A19.51,19.51,0,0,1,260.8,286.56Z"/><path class="cls-6" d="M294.37,294.59c-2.71,1.7-7.21,3.8-10.42,2.21-2.78-1.38-1.34-4.78.05-6.64a18.77,18.77,0,0,1,9.92-6.6c2.29-.62,6.71-1,7,2.4C301.16,289.6,297.07,292.9,294.37,294.59Z"/><path class="cls-6" d="M102.75,285.13a24.44,24.44,0,0,0-1,6.42,8,8,0,0,0,.94,4.43c1.73,2.52,4.38-.67,5.36-2.21a24.83,24.83,0,0,0,3.68-12.23c.06-1.72-.1-6.67-3-5.89-1.39.37-2.45,1.82-3.19,3A23.5,23.5,0,0,0,102.75,285.13Z"/><path class="cls-6" d="M111,285a21.93,21.93,0,0,0-3,5.77,7.53,7.53,0,0,0-.39,4.47c1,3,4.54,1.08,6.16-.11a22.54,22.54,0,0,0,7.4-9.91c.69-1.82,1.93-6.37-1.17-6.77-1.46-.18-3,.72-4.12,1.53A21.26,21.26,0,0,0,111,285Z"/><path class="cls-6" d="M121.71,289.51c-2.79.72-6.73,2-8.29,4.71s1.86,3.51,3.75,3.66a21.25,21.25,0,0,0,11.16-2.43c1.46-.76,5.22-3,3.73-5.15-.76-1.09-2.45-1.36-3.67-1.47A19.58,19.58,0,0,0,121.71,289.51Z"/><path class="cls-6" d="M87,289.55c2.24,2.28,5.93,5.18,9.4,4.64,3.16-.5,2.78-4.09,1.87-6.33a18.77,18.77,0,0,0-8.25-9c-2-1.1-6-2.48-7.27.4a6.12,6.12,0,0,0,.35,4.54A17.56,17.56,0,0,0,87,289.55Z"/><path class="cls-12" d="M104.38,288.39l.07.08c0-.07,0-.14,0-.2A.5.5,0,0,0,104.38,288.39Z"/><path class="cls-6" d="M152.49,281c-2.71,1.7-7.22,3.8-10.42,2.21-2.79-1.38-1.34-4.78.05-6.64A18.75,18.75,0,0,1,152,270c2.3-.62,6.72-1,7,2.4C159.28,276,155.18,279.34,152.49,281Z"/><path class="cls-6" d="M176.75,277.21c-.86,3.05-2.61,7.11-5.75,8.46s-4.56-1.93-4.87-4.42a18.65,18.65,0,0,1,2.73-11.69c1.18-1.91,3.83-5.08,6.4-3.53,1.35.82,1.88,2.59,2.1,4.06A17.32,17.32,0,0,1,176.75,277.21Z"/><path class="cls-6" d="M181.88,284.48c-2.9,1.31-7.74,2.82-10.67.73-2.5-1.77-.61-4.89,1-6.53A18.8,18.8,0,0,1,183,273.47c2.35-.28,6.68,0,6.47,3.34C189.29,280.45,184.79,283.17,181.88,284.48Z"/><path class="cls-6" d="M407.89,541.72c-.27-2.84-.4-7.23,1.74-9.49,2-2.1,3.95,1,4.67,2.66a21.4,21.4,0,0,1,1.35,11.22c-.23,1.61-1.14,5.85-3.66,5-1.25-.43-2-1.89-2.54-3A19.65,19.65,0,0,1,407.89,541.72Z"/><path class="cls-6" d="M139.73,559.2q-3.82,10.29,5.87,16c2.31-.63,3.16-4.92,1.89-9.58,0-.12-.08-.25-.11-.37,3.81,1.33,7.3,1,8.18-.91.67-1.44-.33-3.43-2.35-5.19,2.92.16,5.1-.46,5.44-1.74.41-1.54-1.94-3.54-5.52-4.92,18.78-2.35,1.84-7.82-1.91-7.39A19.58,19.58,0,0,0,153.7,543a18,18,0,0,0,2.71-3.44q7.93,2.15,2.63-5.25,18.26,1.29.49-7.41a14.63,14.63,0,0,0-.15-2.81c3.56,1.89,7.06,2.11,8.22.35.88-1.32.2-3.44-1.53-5.49q11.12.74.94-6.6,11.85.3,7.34-5.24a24,24,0,0,0,7.12-2.25c-2.54,3.73-6.14,24.71,6.76,6.12q-1.3,12.38,5.13,6.93a7.58,7.58,0,0,0,3.23.21,3.81,3.81,0,0,0,2.85,2c1.81.09,3.49-1.7,4.55-4.48A24.68,24.68,0,0,0,206.6,514l-.27.57q-5.1,21.79,8.16,4.7c.16,4.76,1.55,8.35,3.52,8.5,1.65.13,3.27-2.18,4.28-5.69,1.25,3.11,3.17,5.09,5.14,4.9,2.61-.26,4.41-4.23,4.41-9.25l.4.29.55.35c-5.51,12.92,8.87,4.58,11,1.9l.16-.13c1.43,4.61,4.21,7.73,6.68,7.23,1.88-.39,3.09-2.76,3.36-6q8.83,10.07,6.4-4.82c3.59,3.79,7.64,5.78,9.61,4.72a2.94,2.94,0,0,0,1.77,2c2.28.65,5.35-3,7.06-8.28.82,4.51,2.64,7.72,4.54,7.59,1.58-.11,2.8-2.53,3.27-6,1.61,2.77,3.72,4.38,5.57,3.93,2.2-.55,3.35-3.87,3-8a23.35,23.35,0,0,0,2.9-2.22,22.74,22.74,0,0,0,2.69-2.83c-.75,4.45,4.72,25,8.7,2.74,1.42,4.36,3.67,7.29,5.53,6.91.9-.19,1.57-1.15,2-2.6,2.45-.06,5.81-2.21,8.5-5.69.1-.13.18-.26.28-.38q6.75,14,10,1.15c1.95,2.91,4.12,4.54,5.59,3.94,1.75-.72,2-4.41.7-8.82q10.23,10.2,10.64,1.35a18.1,18.1,0,0,0,4-4.94c.08-.13.15-.27.23-.41,2.12,4.34,5.35,7,7.71,6.12,1.78-.67,2.61-3.2,2.37-6.4,2.35,2.6,4.72,3.91,6.09,3.1,1.64-1,1.32-4.65-.55-8.83,4.39,3.38,9,4.66,10.5,2.83a1.91,1.91,0,0,0,.3-.54,16.76,16.76,0,0,0,2.25.23q-9.69,10.56,8.18,7.34c5.45-1.91,9.1-5.65,8.16-8.35a3.94,3.94,0,0,0-3-2.23c1.41-1,2.17-2,2-3q-10-5.1-19.36.38c-1.49-2.07-16.23-11.06-15.6-5.57-1.58-1.22-3-1.7-4-1.13s-1.19,1.77-1,3.46c-2.43-1.7-4.25-1.36-5.46,1a16.49,16.49,0,0,0-8.32,7.82c-3.77-3.7-7.91-5.43-9.6-3.89a2.58,2.58,0,0,0-.73,1.87c-1.4-1.44-2.76-2.12-3.79-1.69s-1.42,1.58-1.5,3.28a3.94,3.94,0,0,0-3.49-1.39,3.31,3.31,0,0,0-2.06,1.64c-2.47-.07-5.95,2.1-8.71,5.69-.32.41-.6.82-.88,1.23-1.38-5-3.86-8.48-5.88-8.06-1.08.23-1.84,1.56-2.19,3.53q-2.81-3.11-5.39,1.76a1.13,1.13,0,0,0-.12-.18c-1.46-1.63-5.93,0-10,3.64h0c-1.64-2.94-3.83-4.67-5.73-4.2a4,4,0,0,0-2.51,2.8c-.82-1.49-1.8-2.35-2.8-2.28s-2,1.29-2.65,3.2a2.56,2.56,0,0,0-1.48-1.36c-2.4-.68-5.67,3.39-7.31,9.11a22.69,22.69,0,0,0-.63,2.76,22.62,22.62,0,0,0-3.19-4.57q-9.27-11-11.33-3.23c-3-2.93-4.81-2.43-5.34,1.53a4,4,0,0,0-3.49-1.45,3.32,3.32,0,0,0-2.09,1.62,8.25,8.25,0,0,0-4.69,1.68c-.4-.32-.82-.64-1.27-.95-3.88-2.66-8-3.7-10.44-2.84a3.45,3.45,0,0,0-2.57-1,4.09,4.09,0,0,0-3,2.49q-2.59-5.62-5.75.12a2.68,2.68,0,0,0-1.32-1.62c-1.23-.56-2.9.19-4.58,1.81,0-.07,0-.14-.07-.21-.61-1.28-2.76-1.63-5.53-1.12q-1.74-11.55-7.78-5.68-1.68-5.72-5.49-.7-1.26-4-5.64-.64a1.46,1.46,0,0,0,0-.22q-11.43-4.39-18.93,5.19l-.44,0c-5-.31-9.09,1.13-9.22,3.21a2.13,2.13,0,0,0,.65,1.55c-1.67-.05-2.89.34-3.26,1.19s.07,1.78,1,2.85a3.28,3.28,0,0,0-2.9,1.19,2.78,2.78,0,0,0-.29,2.19c-1.44,1.32-2.24,4.38-2,7.9a15.69,15.69,0,0,0-4.52.08c-10.87-4,2.27,10.24,4.59,11.76a13.31,13.31,0,0,0-5.31,9.83l.15.11c-1.68.84-2.69,1.91-2.59,3A2.09,2.09,0,0,0,144,551c-1.66.21-2.81.78-3,1.68s.34,1.75,1.43,2.66a3.32,3.32,0,0,0-2.69,1.62,2.79,2.79,0,0,0,0,2.21"/><path class="cls-6" d="M396.08,509.27a16.14,16.14,0,0,0-7.92-1.64c-1.64.15-3.62.83-4,2.68-.29,1.7.9,3.37,2,4.54a17.8,17.8,0,0,0,6,4c-4.13,2.5-6.5,6-5.42,8.22.82,1.72,3.41,2.32,6.58,1.8-2.38,2.57-3.48,5.05-2.55,6.35,1.1,1.54,4.74.91,8.74-1.33-3,4.63-3.83,9.28-1.94,10.67-2.22,1.36-2.17,3.43-.14,4.86,2.29,1.61,5.37,2.15,8.11,2.34a18.25,18.25,0,0,0-4.54,2.79,4.53,4.53,0,0,0-1.8,2.84c-.11,2.87,5,2.52,6.69,2.33-2.3,2.24-3.35,4.68-2.46,6.36,1.18,2.22,5.37,2.37,9.83.52,0,.16-.07.31-.11.46-1.2,5.65.09,10.71,2.89,11.31,3.5.74,5.84-4.48,6.66-7a19.41,19.41,0,0,0,1-7.21,8.62,8.62,0,0,0-1.72-5.27c.84-2.58-1-4.17-3.4-4.39,1.24-1.16,1.84-2.32,1.53-3.27s-1.74-1.67-3.74-1.8c1.93-1.74.46-3.66-1.31-4.67a18.27,18.27,0,0,0-8.34-2,25.94,25.94,0,0,0-3.46.12,22.88,22.88,0,0,0,6.58-9c.71-1.78,2-5.58,0-7"/><path class="cls-13" d="M449.38,357.7a268.14,268.14,0,0,0-34.14-31.61c-10.4-8.06-21.38-15.38-32.46-22.47S360.23,289.8,348,285c-6.53-2.54-13.53-4.67-20.6-4.63a25,25,0,0,0-12.49,3.34,28.27,28.27,0,0,0-3.75,2.57A390.16,390.16,0,0,1,348.27,301q16.1,7.35,31.44,16.22,13.2,7.65,25.69,16.42,10.49,7.35,20.36,15.5c7.17,5.92,14.11,12.12,20.73,18.66a191.86,191.86,0,0,1,21.75,25.11,101.21,101.21,0,0,1,11,19.24,65.16,65.16,0,0,1,4.12,13.54,84.29,84.29,0,0,1-.22,30.38A105.18,105.18,0,0,1,473.06,485q-1.24,2.43-2.61,4.8a17.25,17.25,0,0,0,13.1-4.54,27.16,27.16,0,0,0,6.22-9.65c3.57-8.77,4.47-18.62,4.46-28a108.36,108.36,0,0,0-3.86-29.55,94.66,94.66,0,0,0-13.92-28.33c-7-10-15.29-19.06-23.49-28.09Z"/><path class="cls-6" d="M373.25,319.61a21.33,21.33,0,0,0-5.8-.57,7.19,7.19,0,0,0-3.95,1.11c-2.21,1.75.71,4.07,2.22,5a21.41,21.41,0,0,0,10.94,2.79c1.65,0,6-.43,5.29-3.1-.34-1.27-1.66-2.2-2.71-2.85A19.93,19.93,0,0,0,373.25,319.61Z"/><path class="cls-6" d="M399.33,339.44a20.53,20.53,0,0,0-5.79-.57,7.14,7.14,0,0,0-4,1.1c-2.21,1.75.71,4.08,2.22,5a21.5,21.5,0,0,0,10.94,2.78c1.65,0,6-.43,5.29-3.1-.34-1.27-1.66-2.2-2.71-2.85A19.9,19.9,0,0,0,399.33,339.44Z"/><path class="cls-6" d="M471.07,481.72c-.46-2.83-1.43-7-4-8.72-2.39-1.57-3.57,1.79-3.87,3.58a21.36,21.36,0,0,0,1.46,11.25c.63,1.51,2.59,5.48,4.84,4,1.1-.73,1.49-2.35,1.7-3.55A19.73,19.73,0,0,0,471.07,481.72Z"/><path class="cls-6" d="M451.81,385.55a20.87,20.87,0,0,0-5.74-2,6.52,6.52,0,0,0-4.05.27c-2.35,1.3,0,4.19,1.25,5.34a21.49,21.49,0,0,0,10.11,5.27c1.66.35,6,.83,5.63-2a6.21,6.21,0,0,0-2.12-3.38A20.66,20.66,0,0,0,451.81,385.55Z"/><path class="cls-12" d="M105.42,288.39l.07.08a1.77,1.77,0,0,1,0-.2Z"/><path class="cls-12" d="M471.8,478.48a17,17,0,0,0,2.56,1.9A26.38,26.38,0,0,1,471.8,478.48Z"/><path class="cls-12" d="M471.8,478.48a17,17,0,0,0,2.56,1.9A26.38,26.38,0,0,1,471.8,478.48Z"/><path class="cls-12" d="M105.42,288.39l.07.08a1.77,1.77,0,0,1,0-.2Z"/><path class="cls-6" d="M435.34,375.79c-1.86.29-3.17,0-3.86-1-8,2.91-15.43,10.84-21.44,17.86-8.66,10.14-15.35,21.36-19.17,32.69a85.61,85.61,0,0,0-4,36.92,138.36,138.36,0,0,0,6.82,31.38c4.8,14,8.45,28,11.62,41,2.28,8.74,4.5,17.41,10.16,23.64a22,22,0,0,0,17.4,7.09,21.64,21.64,0,0,0,16.46-9c4.93-6.72,6.84-15.52,9-24.43,2.85-12.52,6.3-25.88,10.43-39.18,1.19-3.93,2.41-7.86,3.58-11.79l-.75-.59a12,12,0,0,1-1.93-1.9l-.13-.15"/><path class="cls-6" d="M471.8,478.48a24.15,24.15,0,0,0,3.53,2.49c1.78,1,7.4,3.53,7.89-.22a6.54,6.54,0,0,0-1.11-3.87,20.14,20.14,0,0,0-4-4.82,17.72,17.72,0,0,0,5.27.65,4.56,4.56,0,0,0,3.19-1.07c1.91-2.17-2.32-5.1-3.77-6,2.34-.23,6.65-1.4,5.85-4.62-.73-3-4.69-4.61-7.3-5.36l.38-.29c4.46-3.66,6.62-8.42,4.8-10.64-1.33-1.63-4.45-1.41-7.79.28-.2-.42-.42-.84-.65-1.25A24.18,24.18,0,0,0,476,440.5l.56.23c5.56,2.11,10.79,1.93,11.67-.4s-2.55-5.58-7.66-7.72c4.56-.44,7.91-2,7.94-3.89,0-1.59-2.3-3-5.72-3.76,2.14-1,5.85-3.65,3.88-6.41-1.77-2.47-5.93-2.65-8.64-2.48.08-.13.17-.26.25-.4a16.16,16.16,0,0,0,2.5-7.54c.06-1.6-.31-3.61-2-4.28s-3.29.24-4.55,1.09a17,17,0,0,0-4.87,5.43"/><path class="cls-6" d="M466.4,467.89c-1.1,1.28-.29,3.32.37,4.59a20,20,0,0,0,5,6"/><path class="cls-6" d="M463.56,405.11c4.27-.36,8.05-2.73,11.35-7.16-.55-2.3-5.24-3.19-10.67-2.09q10.5-10.71-2.45-7.58c1.62-2.77,2-5.4.69-6.79-1.72-1.83-5.8-.86-9.62,2.09,0-.15,0-.31,0-.47a.15.15,0,0,1,0-.07q14.1-8-2.67-8.31a5.82,5.82,0,0,0-.56-.63q8.67-9.9-3.47-6.69c1.63-2.77,2-5.4.69-6.78-1.72-1.83-5.8-.87-9.62,2.09,0-.16,0-.31,0-.47-.34-5.77-2.92-10.31-5.78-10.14-2.07.12-3.7,2.68-4.33,6.27a23.85,23.85,0,0,0-7.63-1.77l.55-.27q16.88-13.32-3.33-8.42,7.68-12.89-4.17-6.78c.92-3.08.66-5.72-.93-6.76-2.12-1.37-5.85.54-8.86,4.31l-.12-.45a21.45,21.45,0,0,0-1-2.63q8.54-10.29-6.79-5.89l-.22,0a2.64,2.64,0,0,0-.73.37l-.12.06q7.68-12.9-4.17-6.79c.92-3.07.66-5.72-.94-6.75-2.11-1.37-5.84.53-8.85,4.31l-.12-.46a18.26,18.26,0,0,0-2.95-5.84q6.3-10-9.05-4.29,7.67-12.9-4.17-6.79c.92-3.08.66-5.72-.94-6.75-2.11-1.37-5.84.53-8.85,4.31,0-.16-.08-.31-.13-.46-.17-.57-.37-1.12-.58-1.65,3.07-1.4,5-3.26,4.61-4.79-.48-2-4.68-2.7-9.59-1.7a2.93,2.93,0,0,0-4.28,1.29l-.36.15.37-.48q9.11-19.5-6.75-6c.79-4.52.19-8.16-1.63-8.69-1.53-.45-3.51,1.4-5.15,4.5-.55-3.16-2-5.41-3.86-5.62-2.5-.27-5,3.09-6,7.8-.23-2.68-1.23-4.65-2.85-5.11a3.55,3.55,0,0,0-3,.76,7.43,7.43,0,0,0-3.51-.73c-.55-1.4-1.32-2.28-2.24-2.38-1.89-.19-3.81,3-4.77,7.45-1.55-5.32-4.5-9.07-6.8-8.49s-3.19,5.79-1.72,11.55c.05.2.11.39.16.59a23,23,0,0,0-3-2.54,24.7,24.7,0,0,0-3.13-1.9c-.13-4.14-1.63-7.32-3.87-7.63-1.89-.27-3.81,1.56-5.13,4.49-.83-3.4-2.3-5.68-3.88-5.63-1.9.07-3.38,3.46-3.72,8-2.25-5.06-5.69-8.38-7.89-7.48l-.15.08q-1.47-8.81-10.46,2.61.86-15.06-6.87-4.11-4.78-12.39-9.86,2.36a9.94,9.94,0,0,0-.79-.8c1.95-2.87,2.52-5.69,1.21-7.23-1.94-2.26-7.21-.94-11.78,3-.13.1-.24.21-.36.32-.53-5-2.75-8.75-5.37-8.73-2,0-3.68,2.19-4.59,5.41q-8.1-12.93-7.16,6.14a24.09,24.09,0,0,0-7.37,1.83l.37-.48q9.09-19.5-6.75-6c.79-4.52.19-8.16-1.64-8.7-1.52-.44-3.5,1.41-5.14,4.51-.56-3.17-2-5.41-3.87-5.62-2.5-.27-5,3.1-6,7.83-.11-.12-.21-.24-.32-.35-3.55-3.71-7.82-5.53-10.18-4.49a1.91,1.91,0,0,0-1.12-.56c-1.88-.19-3.81,3-4.77,7.44-1.54-5.32-4.5-9.07-6.79-8.48s-3.19,5.78-1.73,11.54c.06.2.11.4.17.59a24,24,0,0,0-6.17-4.47c-.34-3.61-1.76-6.27-3.81-6.56-1.88-.26-3.81,1.57-5.13,4.5-.82-3.4-2.29-5.69-3.88-5.63-1.9.07-3.37,3.46-3.71,8-2.26-5.07-5.69-8.38-7.89-7.49s-2.37,6.17-.14,11.68l.24.56A23,23,0,0,0,120,273q-11.47-6.54-10.57.67a22.72,22.72,0,0,0-3.74,2.89q3.22-14.65-6.09-5.12c-.1-3.21-1.18-5.64-3-6.12-2.43-.64-5.38,2.34-7,6.88-.09-.13-.17-.26-.27-.39q-14.16-13.41-10.15,3.11-2.08-.32-4.26-.48c1.61-3.59,1.68-6.9-.1-8.16-2.34-1.66-6.94.82-10.28,5.53l-.26.39c-1.67-4.54-4.61-7.52-7.05-6.88-1.84.48-2.92,2.91-3,6.12q-9.32-9.53-6.1,5.12c-4-3.81-8.47-5.55-10.15-3.89s-.16,5.73,3.25,9.65c-.56.32-1.11.66-1.66,1l-.66-.07c-5.42-.51-10,.83-10.2,3-.1,1.13,1,2.25,2.82,3.14-.85.76-1.67,1.55-2.49,2.37Q21.34,282,20.2,299c0,.16,0,.31,0,.47Q6,293.4,11.92,305.19q-13.23-1.6-1.55,7.81C4.84,312.55.29,314,0,316.32s4.27,5.05,10.17,5.73h.05c0,.12-.08.24-.11.36A26.91,26.91,0,0,0,7.36,324c-4.55,3-7.27,6.91-6.08,8.73.89,1.35,3.69,1.17,6.94-.24-.18,1.79-.28,3.56-.31,5.3-2.48,0-4.12.58-4.31,1.6-.21,1.18,1.57,2.74,4.49,4.19,0,.42.07.83.11,1.24C3.58,345.73.45,347.36.74,349s3.81,2.65,8.56,2.81l0,.15c-2.19,1.83-3.28,3.56-2.68,4.64.5.89,2.06,1.16,4.2.91.42,1.3.89,2.55,1.39,3.76-4.54,1.57-7.49,3.6-7,5.09s3.72,1.92,8.11,1.53q-14.13,12.86,2.84,6.75c-1.18,2.73-1.39,4.86-.33,5.56.72.47,1.91.2,3.33-.61-2.94,4.24-4.22,7.92-2.9,8.87s4.13-.72,7.39-3.69Q20.19,403.5,30,388.37c.72,2.88,1.84,4.71,3.11,4.62,1.49-.1,2.78-2.84,3.42-6.77,3,.93,5,.84,5.35,0,1.84-2.18-1.13-8.38-2.91-16.06,1.27-.15,2.16-.54,2.46-1.21.53-1.15-.79-2.85-3.25-4.53,4.83-.53,8.36-1.91,8.51-3.53s-3.66-3.21-9-3.63l0-.45c3.5-1.9,5.66-3.92,5.31-5.24a1.23,1.23,0,0,0-.48-.64,7.66,7.66,0,0,0-2.26-3.38q10.35-.18,1.46-6.06c.13-.27.25-.54.39-.8A15,15,0,0,0,46,339.52Q51.57,341.14,50,334c2.33,1.79,4.48,2.51,5.48,1.64,1.21-1,.39-4-1.78-7.18,4.13,2.12,8.1,2.48,9.07.74s-1.11-4.48-4.59-6.8c.86-.62,1.74-1.2,2.62-1.76l.37-.09q12,3.06,7-3.8A48,48,0,0,1,82.41,313m23-24.58,0-.12a1.77,1.77,0,0,0,0,.2Z"/></g></g></svg>